<?xml version="1.0" encoding="iso-8859-1"?>
<!-- Generator: Adobe Illustrator 18.0.0, SVG Export Plug-In . SVG Version: 6.00 Build 0)  -->
<!DOCTYPE svg PUBLIC "-//W3C//DTD SVG 1.1//EN" "http://www.w3.org/Graphics/SVG/1.1/DTD/svg11.dtd">
<svg fill='#ef4040' version="1.1" id="Capa_1" xmlns="http://www.w3.org/2000/svg" xmlns:xlink="http://www.w3.org/1999/xlink" x="0px" y="0px"
	 viewBox="0 0 477.871 477.871" style="enable-background:new 0 0 477.871 477.871;" xml:space="preserve">
<path d="M457.957,347.779H130.09V19.912C130.09,8.915,121.178,0,110.182,0H19.91C8.912,0,0,8.915,0,19.912v19.912h29.195
	c4.404,0,7.967,3.561,7.967,7.964c0,4.403-3.563,7.964-7.967,7.964H0v41.417h29.195c4.404,0,7.967,3.563,7.967,7.964
	c0,4.403-3.563,7.964-7.967,7.964H0v41.418h29.195c4.404,0,7.967,3.562,7.967,7.964c0,4.401-3.563,7.965-7.967,7.965H0v41.41h29.195
	c4.404,0,7.967,3.562,7.967,7.964c0,4.401-3.563,7.964-7.967,7.964H0V269.2h29.195c4.404,0,7.967,3.561,7.967,7.964
	c0,4.403-3.563,7.964-7.967,7.964H0v41.417h29.195c4.404,0,7.967,3.563,7.967,7.966c0,4.401-3.563,7.964-7.967,7.964H0v5.303
	v110.183c0,10.997,8.912,19.91,19.91,19.91h110.18h5.307v-29.198c0-4.401,3.563-7.964,7.961-7.964c4.404,0,7.967,3.563,7.967,7.964
	v29.198h41.409v-29.198c0-4.401,3.564-7.964,7.962-7.964c4.402,0,7.967,3.563,7.967,7.964v29.198h41.424v-29.198
	c0-4.401,3.564-7.964,7.967-7.964c4.402,0,7.963,3.563,7.963,7.964v29.198h41.409v-29.198c0-4.401,3.562-7.964,7.967-7.964
	c4.402,0,7.961,3.563,7.961,7.964v29.198h41.429v-29.198c0-4.401,3.559-7.964,7.961-7.964c4.404,0,7.967,3.563,7.967,7.964v29.198
	h41.409v-29.198c0-4.401,3.56-7.964,7.962-7.964c4.402,0,7.967,3.563,7.967,7.964v29.198h19.91c10.996,0,19.914-8.913,19.914-19.903
	v-90.284C477.871,356.694,468.953,347.779,457.957,347.779z M65.549,426.096c-10.547,0-19.088-8.548-19.088-19.087
	c0-10.54,8.541-19.088,19.088-19.088c10.549,0,19.088,8.549,19.088,19.088C84.637,417.547,76.098,426.096,65.549,426.096z"/>
<g>
</g>
<g>
</g>
<g>
</g>
<g>
</g>
<g>
</g>
<g>
</g>
<g>
</g>
<g>
</g>
<g>
</g>
<g>
</g>
<g>
</g>
<g>
</g>
<g>
</g>
<g>
</g>
<g>
</g>
</svg>
