<svg fill='#ef4040' xmlns="http://www.w3.org/2000/svg" xmlns:xlink="http://www.w3.org/1999/xlink" version="1.1" width="256" height="256" viewBox="0 0 256 256" xml:space="preserve">

<defs>
</defs>
<g style="stroke: none; stroke-width: 0; stroke-dasharray: none; stroke-linecap: butt; stroke-linejoin: miter; stroke-miterlimit: 10; fill='#ef4040' fill-rule: nonzero; opacity: 1;" transform="translate(1.4065934065934016 1.4065934065934016) scale(2.81 2.81)" >
	<path d="M 83.166 61.638 L 62.121 33.216 c -0.084 -0.113 -0.188 -0.202 -0.303 -0.268 l 0.001 -0.002 l -11.025 -6.391 c -0.813 -0.472 -1.793 -0.419 -2.551 0.143 c -0.758 0.561 -1.095 1.48 -0.881 2.398 l 2.896 12.41 l 0.002 -0.001 c 0.031 0.132 0.085 0.258 0.167 0.369 l 21.045 28.422 c 1.426 1.924 3.627 2.941 5.855 2.941 c 1.504 0 3.021 -0.464 4.319 -1.425 C 84.872 69.425 85.553 64.86 83.166 61.638 z M 49.434 28.305 c 0.079 -0.059 0.206 -0.108 0.357 -0.02 l 9.708 5.628 L 51.86 39.57 L 49.31 28.642 C 49.268 28.46 49.369 28.353 49.434 28.305 z" style="stroke: none; stroke-width: 1; stroke-dasharray: none; stroke-linecap: butt; stroke-linejoin: miter; stroke-miterlimit: 10; fill='#ef4040'; fill-rule: nonzero; opacity: 1;" transform=" matrix(1 0 0 1 0 0) " stroke-linecap="round" />
	<path d="M 69.867 71.486 l -2.073 -2.799 c 0 0 0 0 0 0 c 0 0 0 0 0 0 L 48.821 43.064 c -0.246 -0.332 -0.414 -0.709 -0.507 -1.104 l -0.004 0.001 l -2.896 -12.41 c -0.392 -1.682 0.251 -3.433 1.639 -4.46 c 1.388 -1.027 3.25 -1.13 4.744 -0.266 l 11.024 6.392 l -0.001 0.001 c 0.344 0.199 0.655 0.469 0.907 0.809 l 9.295 12.553 V 3.982 C 73.023 1.786 71.237 0 69.042 0 H 9.387 C 7.191 0 5.405 1.786 5.405 3.982 v 82.036 C 5.405 88.214 7.191 90 9.387 90 h 59.655 c 2.195 0 3.981 -1.786 3.981 -3.982 V 74.173 C 71.818 73.544 70.729 72.65 69.867 71.486 z M 12.664 15.026 l 7.477 -7.477 c 0.391 -0.391 1.023 -0.391 1.414 0 s 0.391 1.023 0 1.414 l -7.477 7.477 c -0.195 0.195 -0.451 0.293 -0.707 0.293 s -0.512 -0.098 -0.707 -0.293 C 12.273 16.049 12.273 15.417 12.664 15.026 z M 22.917 15.975 l -8.621 8.621 c -0.195 0.195 -0.451 0.293 -0.707 0.293 s -0.512 -0.098 -0.707 -0.293 c -0.391 -0.391 -0.391 -1.023 0 -1.414 l 8.621 -8.621 c 0.391 -0.391 1.023 -0.391 1.414 0 S 23.308 15.584 22.917 15.975 z M 29.738 8.161 l -3.567 3.567 c -0.195 0.195 -0.451 0.293 -0.707 0.293 s -0.512 -0.098 -0.707 -0.293 c -0.391 -0.39 -0.391 -1.023 0 -1.414 l 3.567 -3.567 c 0.391 -0.391 1.023 -0.391 1.414 0 C 30.128 7.137 30.128 7.771 29.738 8.161 z M 39.053 84.923 c -0.818 0 -1.48 -0.663 -1.48 -1.48 c 0 -0.818 0.663 -1.48 1.48 -1.48 s 1.48 0.663 1.48 1.48 C 40.533 84.26 39.871 84.923 39.053 84.923 z" style="stroke: none; stroke-width: 1; stroke-dasharray: none; stroke-linecap: butt; stroke-linejoin: miter; stroke-miterlimit: 10; fill='#ef4040'; fill-rule: nonzero; opacity: 1;" transform=" matrix(1 0 0 1 0 0) " stroke-linecap="round" />
</g>
</svg>